<svg width="20" height="20" viewBox="0 0 20 20" fill="none" xmlns="http://www.w3.org/2000/svg">
<g id="entypo-social:google-with-circle" clip-path="url(#clip0_0_91)">
<path id="Vector" d="M9.99999 0.400024C4.69799 0.400024 0.399994 4.69802 0.399994 10C0.399994 15.302 4.69799 19.6 9.99999 19.6C15.302 19.6 19.6 15.302 19.6 10C19.6 4.69802 15.302 0.400024 9.99999 0.400024ZM9.44699 14.121C8.84399 14.414 8.19499 14.445 7.94399 14.445H7.81499C7.42299 14.445 5.47199 14.355 5.47199 12.578C5.47199 10.832 7.59699 10.695 8.24799 10.695H8.26499C7.88899 10.193 7.96699 9.68703 7.96699 9.68703C7.92038 9.68976 7.87369 9.69109 7.82699 9.69102C7.58199 9.69102 7.10899 9.65203 6.70299 9.39003C6.20499 9.07003 5.95299 8.52502 5.95299 7.77102C5.95299 5.64002 8.27999 5.55402 8.30299 5.55202H10.627V5.60302C10.627 5.86302 10.16 5.91402 9.84199 5.95702C9.73399 5.97302 9.51699 5.99402 9.45599 6.02502C10.045 6.34002 10.14 6.83402 10.14 7.57002C10.14 8.40802 9.81199 8.85102 9.46399 9.16202C9.24799 9.35502 9.07899 9.50602 9.07899 9.70902C9.07899 9.90802 9.31099 10.111 9.58099 10.348C10.022 10.737 10.627 11.266 10.627 12.159C10.627 13.082 10.23 13.742 9.44699 14.121ZM14.5 10H13V11.5H12V10H10.5V9.00002H12V7.50002H13V9.00002H14.5V10ZM8.22299 11.15C8.1706 11.15 8.11823 11.152 8.06599 11.156C7.64125 11.1805 7.2367 11.3455 6.91599 11.625C6.62199 11.891 6.47199 12.227 6.49299 12.566C6.53799 13.277 7.30099 13.693 8.22799 13.627C9.13999 13.561 9.74799 13.035 9.70399 12.324C9.66199 11.656 9.08099 11.15 8.22299 11.15ZM9.09699 7.28502C8.85499 6.43502 8.46499 6.18302 7.85899 6.18302C7.79343 6.18351 7.7282 6.19258 7.66499 6.21002C7.40199 6.28502 7.19299 6.50402 7.07699 6.83002C6.95799 7.16002 6.95099 7.50402 7.05299 7.89602C7.23799 8.59702 7.73599 9.10502 8.23799 9.10502C8.30364 9.10566 8.36902 9.09657 8.43199 9.07802C8.98099 8.92402 9.32499 8.08602 9.09699 7.28502Z" fill="black"/>
</g>
<defs>
<clipPath id="clip0_0_91">
<rect width="20" height="20" fill="white"/>
</clipPath>
</defs>
</svg>
