<svg width="20" height="20" viewBox="0 0 20 20" fill="none" xmlns="http://www.w3.org/2000/svg">
<g id="Group 7">
<path id="Vector" d="M13.125 10C13.125 10.8288 12.7958 11.6237 12.2097 12.2097C11.6237 12.7958 10.8288 13.125 10 13.125C9.1712 13.125 8.37634 12.7958 7.79029 12.2097C7.20424 11.6237 6.875 10.8288 6.875 10C6.875 9.82187 6.89375 9.64792 6.92604 9.47917H5.83333V13.6427C5.83333 13.9323 6.06771 14.1667 6.35729 14.1667H13.6438C13.7825 14.1664 13.9155 14.1111 14.0136 14.0128C14.1116 13.9146 14.1667 13.7815 14.1667 13.6427V9.47917H13.074C13.1062 9.64792 13.125 9.82187 13.125 10ZM10 12.0833C10.2737 12.0833 10.5446 12.0293 10.7974 11.9245C11.0502 11.8197 11.2799 11.6662 11.4734 11.4726C11.6668 11.2791 11.8202 11.0493 11.9249 10.7965C12.0296 10.5436 12.0834 10.2726 12.0833 9.99896C12.0833 9.7253 12.0293 9.45434 11.9245 9.20154C11.8197 8.94874 11.6662 8.71906 11.4726 8.5256C11.2791 8.33215 11.0493 8.17871 10.7965 8.07405C10.5436 7.96939 10.2726 7.91556 9.99896 7.91562C9.44629 7.91576 8.9163 8.13544 8.5256 8.52634C8.1349 8.91724 7.91549 9.44733 7.91562 10C7.91576 10.5527 8.13544 11.0827 8.52634 11.4734C8.91724 11.8641 9.44733 12.0835 10 12.0833ZM12.5 7.8125H13.749C13.8319 7.8125 13.9115 7.77961 13.9703 7.72103C14.0291 7.66246 14.0622 7.58298 14.0625 7.5V6.25104C14.0625 6.16788 14.0295 6.08813 13.9707 6.02933C13.9119 5.97053 13.8321 5.9375 13.749 5.9375H12.5C12.4168 5.9375 12.3371 5.97053 12.2783 6.02933C12.2195 6.08813 12.1865 6.16788 12.1865 6.25104V7.5C12.1875 7.67187 12.3281 7.8125 12.5 7.8125ZM10 0C7.34784 0 4.8043 1.05357 2.92893 2.92893C1.05357 4.8043 0 7.34784 0 10C0 12.6522 1.05357 15.1957 2.92893 17.0711C4.8043 18.9464 7.34784 20 10 20C11.3132 20 12.6136 19.7413 13.8268 19.2388C15.0401 18.7362 16.1425 17.9997 17.0711 17.0711C17.9997 16.1425 18.7362 15.0401 19.2388 13.8268C19.7413 12.6136 20 11.3132 20 10C20 8.68678 19.7413 7.38642 19.2388 6.17317C18.7362 4.95991 17.9997 3.85752 17.0711 2.92893C16.1425 2.00035 15.0401 1.26375 13.8268 0.761205C12.6136 0.258658 11.3132 0 10 0ZM15.2083 14.051C15.2083 14.6875 14.6875 15.2083 14.051 15.2083H5.94896C5.3125 15.2083 4.79167 14.6875 4.79167 14.051V5.94896C4.79167 5.3125 5.3125 4.79167 5.94896 4.79167H14.051C14.6875 4.79167 15.2083 5.3125 15.2083 5.94896V14.051Z" fill="black"/>
</g>
</svg>
