<svg width="21" height="20" viewBox="0 0 21 20" fill="none" xmlns="http://www.w3.org/2000/svg">
<g id="entypo-social:skype">
<path id="Vector" d="M18.871 12.037C19.006 11.3999 19.074 10.7503 19.074 10.099C19.074 5.11302 15.144 1.07002 10.297 1.07002C9.786 1.07002 9.285 1.11702 8.797 1.20302C7.99147 0.678855 7.05106 0.399893 6.09 0.400024C3.279 0.400024 1 2.74402 1 5.63702C1 6.60202 1.256 7.50802 1.699 8.28502C1.58065 8.88278 1.52104 9.49067 1.521 10.1C1.521 15.086 5.451 19.129 10.296 19.129C10.847 19.129 11.383 19.078 11.903 18.979C12.6393 19.387 13.4673 19.6007 14.309 19.6C17.12 19.6 19.399 17.256 19.399 14.364C19.4012 13.5584 19.2207 12.7628 18.871 12.037ZM14.799 14.416C14.393 15.006 13.793 15.475 13.016 15.807C12.247 16.137 11.324 16.303 10.274 16.303C9.014 16.303 7.957 16.076 7.131 15.625C6.55146 15.3067 6.05611 14.8549 5.686 14.307C5.314 13.752 5.125 13.203 5.125 12.674C5.125 12.344 5.248 12.057 5.49 11.822C5.73 11.59 6.039 11.47 6.406 11.47C6.707 11.47 6.968 11.564 7.179 11.747C7.381 11.923 7.554 12.185 7.693 12.52C7.849 12.887 8.019 13.196 8.198 13.44C8.37 13.674 8.618 13.872 8.933 14.026C9.251 14.18 9.681 14.258 10.208 14.258C10.933 14.258 11.528 14.1 11.976 13.785C12.414 13.476 12.626 13.109 12.626 12.658C12.626 12.301 12.515 12.021 12.286 11.801C12.018 11.5557 11.698 11.3742 11.35 11.27C10.8196 11.1087 10.282 10.9719 9.739 10.86C8.829 10.659 8.056 10.421 7.44 10.153C6.81 9.87803 6.303 9.49502 5.932 9.01602C5.557 8.53302 5.365 7.92402 5.365 7.20902C5.365 6.52702 5.565 5.91202 5.961 5.38102C6.354 4.85602 6.926 4.44602 7.664 4.16402C8.392 3.88702 9.26 3.74602 10.24 3.74602C11.023 3.74602 11.713 3.84002 12.287 4.02302C12.865 4.20902 13.353 4.45902 13.736 4.76702C14.123 5.07802 14.41 5.41002 14.59 5.75302C14.772 6.10302 14.865 6.44802 14.865 6.78402C14.865 7.10602 14.744 7.39902 14.504 7.65502C14.264 7.91302 13.961 8.04202 13.604 8.04202C13.28 8.04202 13.024 7.96002 12.848 7.80002C12.684 7.65202 12.512 7.41702 12.324 7.08302C12.105 6.65502 11.84 6.31702 11.536 6.08102C11.241 5.84902 10.748 5.73102 10.07 5.73102C9.441 5.73102 8.929 5.86202 8.551 6.11802C8.183 6.36702 8.006 6.65002 8.006 6.98402C8.006 7.19102 8.064 7.36302 8.182 7.50902C8.307 7.66702 8.483 7.80402 8.705 7.91902C8.935 8.03902 9.172 8.13302 9.41 8.20102C9.654 8.27102 10.064 8.37302 10.625 8.50803C11.336 8.66403 11.988 8.84002 12.564 9.02903C13.0939 9.19589 13.5991 9.433 14.066 9.73403C14.486 10.017 14.82 10.379 15.055 10.81C15.292 11.244 15.412 11.779 15.412 12.4C15.4203 13.1191 15.2062 13.8232 14.799 14.416Z" fill="black"/>
</g>
</svg>
