<svg width="21" height="20" viewBox="0 0 21 20" fill="none" xmlns="http://www.w3.org/2000/svg">
<g id="entypo-social:pinterest" clip-path="url(#clip0_0_97)">
<path id="Vector" d="M8.81699 13.2269C8.29099 15.9809 7.64999 18.6209 5.74899 19.9999C5.16299 15.8379 6.60999 12.7129 7.28299 9.39494C6.13599 7.46494 7.42099 3.58294 9.83799 4.53994C12.813 5.71594 7.26199 11.7119 10.988 12.4619C14.879 13.2429 16.467 5.71194 14.054 3.26294C10.569 -0.27506 3.90799 3.17994 4.72799 8.24494C4.92699 9.48294 6.20599 9.85794 5.23899 11.5669C3.00799 11.0729 2.34199 9.31294 2.42799 6.96694C2.56599 3.12694 5.87699 0.43994 9.19899 0.0669396C13.4 -0.40406 17.343 1.60994 17.888 5.56094C18.501 10.0219 15.992 14.8539 11.499 14.5059C10.281 14.4109 9.77099 13.8069 8.81699 13.2269Z" fill="black"/>
</g>
<defs>
<clipPath id="clip0_0_97">
<rect width="20" height="20" fill="white" transform="translate(0.199997)"/>
</clipPath>
</defs>
</svg>
